# xmcd
#
# Track frame offsets:
#	150
#	13052
#	29902
#	42957
#	58092
#	73677
#	89250
#	101995
#	119000
#	132762
#	148552
#	162387
#	177252
#	189247
#
# Disc length: 2679 seconds
#
# Revision: 1
# Processed by: cddbd v1.4PL0 Copyright (c) Steve Scherf et al.
# Submitted via: audiograbber 1.81.02
#
DISCID=cf0a750e
DTITLE=Ben Steneker - Part Of Me
DYEAR=1900
DGENRE=Country
TTITLE0=She' Gone
TTITLE1=Part Of Me
TTITLE2=No More, No More
TTITLE3=For Sure For Certain
TTITLE4=Why Me
TTITLE5=Woodcarver
TTITLE6=Dog Gone, Baby's Back
TTITLE7=Anger And Tears
TTITLE8=Tryin' To Outrun The Wind
TTITLE9=Till Each Tear Becomes A Rose
TTITLE10=I'll Be Faithfull To You
TTITLE11=Warm And Sweet Love
TTITLE12=I'd Rather Be Sorry
TTITLE13=Merry-Go-Round
EXTD=With Sandra Vanreys
EXTT0=
EXTT1=
EXTT2=
EXTT3=
EXTT4=
EXTT5=
EXTT6=
EXTT7=
EXTT8=
EXTT9=
EXTT10=
EXTT11=
EXTT12=
EXTT13=
PLAYORDER=
